<svg xmlns="http://www.w3.org/2000/svg" xmlns:xlink="http://www.w3.org/1999/xlink" width="1900" zoomAndPan="magnify" viewBox="0 0 1425 899.99999" height="1200" preserveAspectRatio="xMidYMid meet" version="1.0"><defs><clipPath id="7560545a70"><path d="M 565.25 363.84375 L 860 363.84375 L 860 469.59375 L 565.25 469.59375 Z M 565.25 363.84375 " clip-rule="nonzero"/></clipPath></defs><g clip-path="url(#7560545a70)"><path fill="#c08329" d="M 712.628906 467.140625 L 691.945312 384.507812 L 712.628906 363.84375 L 733.304688 384.507812 Z M 696.476562 385.753906 L 712.628906 450.277344 L 728.78125 385.753906 L 712.628906 369.621094 Z M 700.175781 469.59375 L 634.453125 430.207031 L 634.453125 403.941406 L 660.742188 403.941406 Z M 638.542969 427.886719 L 688.246094 457.675781 L 658.421875 408.03125 L 638.542969 408.03125 Z M 725.070312 469.59375 L 764.503906 403.941406 L 790.796875 403.941406 L 790.796875 430.207031 Z M 766.824219 408.03125 L 737.003906 457.675781 L 786.703125 427.886719 L 786.703125 408.03125 Z M 675.792969 464.929688 L 565.304688 464.929688 L 565.304688 469.015625 L 675.792969 469.015625 Z M 859.945312 464.929688 L 749.457031 464.929688 L 749.457031 469.015625 L 859.945312 469.015625 Z M 859.945312 464.929688 " fill-opacity="1" fill-rule="nonzero"/></g></svg>